<svg width="640" height="426" viewBox="0 0 640 426" fill="none" xmlns="http://www.w3.org/2000/svg">
  <rect width="640" height="426" rx="18" fill="url(#g)"/>
  <g filter="url(#f)">
    <rect x="40" y="48" width="560" height="330" rx="14" fill="rgba(255,255,255,0.12)"/>
    <rect x="60" y="76" width="180" height="20" rx="6" fill="#FFC300"/>
    <rect x="60" y="110" width="250" height="12" rx="6" fill="rgba(255,255,255,0.55)"/>
    <rect x="60" y="134" width="210" height="12" rx="6" fill="rgba(255,255,255,0.4)"/>
    <rect x="60" y="158" width="170" height="12" rx="6" fill="rgba(255,255,255,0.3)"/>

    <rect x="360" y="96" width="220" height="124" rx="10" fill="rgba(255,255,255,0.1)" stroke="rgba(255,255,255,0.2)"/>
    <circle cx="392" cy="126" r="10" fill="#0056D2"/>
    <rect x="410" y="118" width="140" height="12" rx="6" fill="rgba(255,255,255,0.6)"/>
    <rect x="410" y="138" width="120" height="10" rx="5" fill="rgba(255,255,255,0.35)"/>
    <rect x="380" y="168" width="180" height="8" rx="4" fill="rgba(255,255,255,0.2)"/>

    <rect x="60" y="218" width="520" height="8" rx="4" fill="rgba(255,255,255,0.2)"/>
    <rect x="60" y="238" width="520" height="8" rx="4" fill="rgba(255,255,255,0.2)"/>
    <rect x="60" y="258" width="300" height="8" rx="4" fill="rgba(255,255,255,0.2)"/>
  </g>
  <defs>
    <linearGradient id="g" x1="0" y1="0" x2="640" y2="426" gradientUnits="userSpaceOnUse">
      <stop stop-color="#0056D2"/>
      <stop offset="1" stop-color="#001D3D"/>
    </linearGradient>
    <filter id="f" x="20" y="28" width="600" height="370" filterUnits="userSpaceOnUse" color-interpolation-filters="sRGB">
      <feFlood flood-opacity="0" result="BackgroundImageFix"/>
      <feGaussianBlur in="BackgroundImageFix" stdDeviation="10"/>
      <feComposite in2="SourceAlpha" operator="in" result="effect1_backgroundBlur"/>
      <feBlend mode="normal" in="SourceGraphic" in2="effect1_backgroundBlur" result="shape"/>
    </filter>
  </defs>
</svg>
